<svg xmlns="http://www.w3.org/2000/svg" xmlns:xlink="http://www.w3.org/1999/xlink" version="1.1" width="256" height="256" viewBox="0 0 256 256" xml:space="preserve">
<g style="stroke: none; stroke-width: 0; stroke-dasharray: none; stroke-linecap: butt; stroke-linejoin: miter; stroke-miterlimit: 10; fill: none; fill-rule: nonzero; opacity: 1;" transform="translate(1.4065934065934016 1.4065934065934016) scale(2.81 2.81)">
	<path d="M 60.634 83.774 H 1 c -0.552 0 -1 -0.447 -1 -1 V 7.225 c 0 -0.552 0.448 -1 1 -1 h 59.634 c 0.553 0 1 0.448 1 1 v 26.563 c 0 0.552 -0.447 1 -1 1 s -1 -0.448 -1 -1 V 8.225 H 2 v 73.549 h 57.634 v -6.129 c 0 -0.553 0.447 -1 1 -1 s 1 0.447 1 1 v 7.129 C 61.634 83.327 61.187 83.774 60.634 83.774 z" style="stroke: none; stroke-width: 1; stroke-dasharray: none; stroke-linecap: butt; stroke-linejoin: miter; stroke-miterlimit: 10; fill: rgb(0,0,0); fill-rule: nonzero; opacity: 1;" transform=" matrix(1 0 0 1 0 0) " stroke-linecap="round"/>
	<path d="M 33.458 26.392 l -2.001 -0.731 c -0.879 -0.258 -1.567 -0.896 -1.886 -1.748 c -0.271 -0.721 -0.244 -1.504 0.075 -2.205 c 0.318 -0.701 0.891 -1.236 1.612 -1.506 c 1.489 -0.558 3.153 0.199 3.71 1.687 c 0.194 0.517 0.771 0.779 1.288 0.585 s 0.779 -0.771 0.585 -1.288 c -0.624 -1.662 -2.066 -2.768 -3.696 -3.069 v -1.264 c 0 -0.552 -0.448 -1 -1 -1 s -1 0.448 -1 1 v 1.32 c -0.197 0.047 -0.395 0.083 -0.59 0.156 c -2.521 0.945 -3.803 3.765 -2.857 6.286 c 0.543 1.447 1.708 2.527 3.134 2.944 l 2.001 0.731 c 0.879 0.258 1.567 0.895 1.887 1.748 c 0.271 0.721 0.244 1.503 -0.075 2.205 c -0.319 0.701 -0.891 1.236 -1.612 1.506 s -1.503 0.245 -2.205 -0.075 c -0.701 -0.318 -1.235 -0.891 -1.505 -1.612 c -0.193 -0.517 -0.771 -0.776 -1.288 -0.585 c -0.517 0.194 -0.779 0.771 -0.585 1.288 c 0.458 1.221 1.364 2.191 2.551 2.73 c 0.37 0.168 0.755 0.274 1.145 0.346 v 1.257 c 0 0.552 0.448 1 1 1 c 0.552 0 1 -0.448 1 -1 v -1.313 c 0.198 -0.047 0.397 -0.091 0.59 -0.163 c 1.221 -0.458 2.19 -1.364 2.73 -2.551 c 0.54 -1.188 0.584 -2.514 0.127 -3.734 C 36.05 27.889 34.885 26.808 33.458 26.392 z" style="stroke: none; stroke-width: 1; stroke-dasharray: none; stroke-linecap: butt; stroke-linejoin: miter; stroke-miterlimit: 10; fill: rgb(0,0,0); fill-rule: nonzero; opacity: 1;" transform=" matrix(1 0 0 1 0 0) " stroke-linecap="round"/>
	<path d="M 14.076 50.726 h -2.803 c -0.552 0 -1 -0.447 -1 -1 s 0.448 -1 1 -1 h 2.803 c 0.552 0 1 0.447 1 1 S 14.628 50.726 14.076 50.726 z" style="stroke: none; stroke-width: 1; stroke-dasharray: none; stroke-linecap: butt; stroke-linejoin: miter; stroke-miterlimit: 10; fill: rgb(0,0,0); fill-rule: nonzero; opacity: 1;" transform=" matrix(1 0 0 1 0 0) " stroke-linecap="round"/>
	<path d="M 14.076 59.596 h -2.803 c -0.552 0 -1 -0.447 -1 -1 s 0.448 -1 1 -1 h 2.803 c 0.552 0 1 0.447 1 1 S 14.628 59.596 14.076 59.596 z" style="stroke: none; stroke-width: 1; stroke-dasharray: none; stroke-linecap: butt; stroke-linejoin: miter; stroke-miterlimit: 10; fill: rgb(0,0,0); fill-rule: nonzero; opacity: 1;" transform=" matrix(1 0 0 1 0 0) " stroke-linecap="round"/>
	<path d="M 32.962 50.726 H 22.676 c -0.552 0 -1 -0.447 -1 -1 s 0.448 -1 1 -1 h 10.286 c 0.552 0 1 0.447 1 1 S 33.515 50.726 32.962 50.726 z" style="stroke: none; stroke-width: 1; stroke-dasharray: none; stroke-linecap: butt; stroke-linejoin: miter; stroke-miterlimit: 10; fill: rgb(0,0,0); fill-rule: nonzero; opacity: 1;" transform=" matrix(1 0 0 1 0 0) " stroke-linecap="round"/>
	<path d="M 30.358 59.596 h -7.682 c -0.552 0 -1 -0.447 -1 -1 s 0.448 -1 1 -1 h 7.682 c 0.552 0 1 0.447 1 1 S 30.91 59.596 30.358 59.596 z" style="stroke: none; stroke-width: 1; stroke-dasharray: none; stroke-linecap: butt; stroke-linejoin: miter; stroke-miterlimit: 10; fill: rgb(0,0,0); fill-rule: nonzero; opacity: 1;" transform=" matrix(1 0 0 1 0 0) " stroke-linecap="round"/>
	<path d="M 41.781 53.775 c -0.08 0 -0.162 -0.01 -0.243 -0.029 c -0.536 -0.134 -0.862 -0.677 -0.729 -1.212 c 1.006 -4.042 3.275 -6.606 6.374 -9.213 c 1.778 -1.344 3.942 -1.994 6.11 -1.854 c 0.552 0.035 0.97 0.51 0.936 1.061 c -0.035 0.551 -0.517 0.967 -1.061 0.935 c -1.721 -0.108 -3.385 0.398 -4.739 1.421 c -2.838 2.39 -4.8 4.602 -5.679 8.132 C 42.637 53.472 42.229 53.775 41.781 53.775 z" style="stroke: none; stroke-width: 1; stroke-dasharray: none; stroke-linecap: butt; stroke-linejoin: miter; stroke-miterlimit: 10; fill: rgb(0,0,0); fill-rule: nonzero; opacity: 1;" transform=" matrix(1 0 0 1 0 0) " stroke-linecap="round"/>
	<path d="M 89.972 61.876 c -0.063 -0.258 -0.225 -0.479 -0.451 -0.618 l -8.022 -4.886 c -0.475 -0.287 -1.088 -0.136 -1.375 0.334 l -0.781 1.283 c -2.596 -1.968 -6.981 -5.488 -8.916 -7.216 c -0.411 -0.366 -1.042 -0.333 -1.412 0.08 c -0.367 0.412 -0.332 1.044 0.08 1.412 c 2.045 1.827 6.568 5.455 9.202 7.442 L 69.53 74.098 c -2.439 -2.299 -4.119 -5.16 -4.764 -8.17 c -0.079 -0.373 -0.364 -0.668 -0.734 -0.761 l -11.261 -2.823 c -0.052 -0.013 -0.104 -0.021 -0.156 -0.026 c -0.956 -0.084 -1.815 -0.54 -2.42 -1.284 c -0.604 -0.745 -0.874 -1.681 -0.759 -2.634 c 0.221 -1.826 1.817 -3.188 3.644 -3.085 l 10.366 2.258 c 0.546 0.118 1.072 -0.226 1.19 -0.765 c 0.117 -0.54 -0.226 -1.072 -0.765 -1.19 l -10.443 -2.274 c -0.049 -0.01 -0.098 -0.017 -0.147 -0.021 c -2.905 -0.179 -5.479 1.934 -5.831 4.837 c -0.181 1.496 0.243 2.964 1.192 4.134 c 0.932 1.148 2.249 1.859 3.716 2.009 l 10.597 2.657 c 0.847 3.305 2.786 6.405 5.517 8.876 l -0.933 1.532 c -0.138 0.227 -0.18 0.499 -0.117 0.757 s 0.225 0.479 0.451 0.618 l 8.022 4.886 c 0.163 0.099 0.343 0.146 0.52 0.146 c 0.338 0 0.667 -0.171 0.855 -0.479 l 12.584 -20.662 C 89.992 62.406 90.034 62.134 89.972 61.876 z M 76.082 81.4 l -6.314 -3.846 L 81.312 58.6 l 6.314 3.846 L 76.082 81.4 z" style="stroke: none; stroke-width: 1; stroke-dasharray: none; stroke-linecap: butt; stroke-linejoin: miter; stroke-miterlimit: 10; fill: rgb(0,0,0); fill-rule: nonzero; opacity: 1;" transform=" matrix(1 0 0 1 0 0) " stroke-linecap="round"/>
	<path d="M 35.403 71.019 c -0.276 0 -0.545 -0.114 -0.738 -0.325 c -0.257 -0.28 -0.332 -0.683 -0.194 -1.037 l 3.661 -9.417 c 0.056 -0.144 0.144 -0.271 0.257 -0.375 L 66.45 34.172 c 0.197 -0.179 0.462 -0.271 0.72 -0.262 c 0.265 0.012 0.515 0.128 0.693 0.324 l 6.041 6.598 c 0.373 0.407 0.346 1.04 -0.062 1.413 L 62.908 52.256 c -0.408 0.373 -1.039 0.345 -1.413 -0.062 c -0.373 -0.408 -0.346 -1.04 0.062 -1.413 l 10.196 -9.336 l -4.69 -5.123 l -27.151 24.86 l -2.843 7.312 l 7.533 -2.188 l 1.696 -1.553 c 0.408 -0.372 1.04 -0.345 1.413 0.062 c 0.373 0.407 0.346 1.04 -0.062 1.413 l -1.869 1.711 c -0.113 0.104 -0.249 0.18 -0.396 0.223 l -9.703 2.818 C 35.59 71.006 35.496 71.019 35.403 71.019 z" style="stroke: none; stroke-width: 1; stroke-dasharray: none; stroke-linecap: butt; stroke-linejoin: miter; stroke-miterlimit: 10; fill: rgb(0,0,0); fill-rule: nonzero; opacity: 1;" transform=" matrix(1 0 0 1 0 0) " stroke-linecap="round"/>
	<path d="M 29.43 72.329 H 11.272 c -0.552 0 -1 -0.447 -1 -1 s 0.448 -1 1 -1 H 29.43 c 0.552 0 1 0.447 1 1 S 29.982 72.329 29.43 72.329 z" style="stroke: none; stroke-width: 1; stroke-dasharray: none; stroke-linecap: butt; stroke-linejoin: miter; stroke-miterlimit: 10; fill: rgb(0,0,0); fill-rule: nonzero; opacity: 1;" transform=" matrix(1 0 0 1 0 0) " stroke-linecap="round"/>
</g>
</svg>