<svg xmlns="http://www.w3.org/2000/svg" style="display: none;">
  <defs>
    <!-- credit icon -->
    <symbol id="credit" viewBox="0 0 256 256">
      <g style="stroke: none; stroke-width: 0; stroke-dasharray: none; stroke-linecap: butt; stroke-linejoin: miter; stroke-miterlimit: 10; fill: none; fill-rule: nonzero; opacity: 1;" transform="translate(1.4065934065934016 1.4065934065934016) scale(2.81 2.81)">
      	<path d="M 84.668 38.004 v -6.27 H 90 V 20 L 45 3.034 L 0 20 v 11.734 h 5.332 v 6.27 h 4.818 v 30.892 H 5.332 v 6.271 H 0 v 11.8 h 90 v -11.8 h -5.332 v -6.271 H 79.85 V 38.004 H 84.668 z M 81.668 35.004 H 66.332 v -3.27 h 15.336 V 35.004 z M 63.332 68.896 v 6.271 h -7.664 v -6.271 H 50.85 V 38.004 h 4.818 v -6.27 h 7.664 v 6.27 h 4.818 v 30.892 H 63.332 z M 26.668 38.004 v -6.27 h 7.664 v 6.27 h 4.818 v 30.892 h -4.818 v 6.271 h -7.664 v -6.271 H 21.85 V 38.004 H 26.668 z M 42.15 68.896 V 38.004 h 5.7 v 30.892 H 42.15 z M 37.332 35.004 v -3.27 h 15.336 v 3.27 H 37.332 z M 37.332 71.896 h 15.336 v 3.271 H 37.332 V 71.896 z M 3 22.075 L 45 6.24 l 42 15.835 v 6.659 H 3 V 22.075 z M 8.332 31.734 h 15.336 v 3.27 H 8.332 V 31.734 z M 13.15 38.004 h 5.7 v 30.892 h -5.7 V 38.004 z M 8.332 71.896 h 15.336 v 3.271 H 8.332 V 71.896 z M 87 83.966 H 3 v -5.8 h 84 V 83.966 z M 81.668 75.166 H 66.332 v -3.271 h 15.336 V 75.166 z M 76.85 68.896 H 71.15 V 38.004 h 5.699 V 68.896 z" style="stroke: none; stroke-width: 1; stroke-dasharray: none; stroke-linecap: butt; stroke-linejoin: miter; stroke-miterlimit: 10; fill: rgb(0,0,0); fill-rule: nonzero; opacity: 1;" transform=" matrix(1 0 0 1 0 0) " stroke-linecap="round"/>
      </g>
    </symbol>

    <!-- debt icon -->
    <symbol id="debt" viewBox="0 0 256 256">
      <g style="stroke: none; stroke-width: 0; stroke-dasharray: none; stroke-linecap: butt; stroke-linejoin: miter; stroke-miterlimit: 10; fill: none; fill-rule: nonzero; opacity: 1;" transform="translate(1.4065934065934016 1.4065934065934016) scale(2.81 2.81)">
      	<path d="M 60.634 83.774 H 1 c -0.552 0 -1 -0.447 -1 -1 V 7.225 c 0 -0.552 0.448 -1 1 -1 h 59.634 c 0.553 0 1 0.448 1 1 v 26.563 c 0 0.552 -0.447 1 -1 1 s -1 -0.448 -1 -1 V 8.225 H 2 v 73.549 h 57.634 v -6.129 c 0 -0.553 0.447 -1 1 -1 s 1 0.447 1 1 v 7.129 C 61.634 83.327 61.187 83.774 60.634 83.774 z" style="stroke: none; stroke-width: 1; stroke-dasharray: none; stroke-linecap: butt; stroke-linejoin: miter; stroke-miterlimit: 10; fill: rgb(0,0,0); fill-rule: nonzero; opacity: 1;" transform=" matrix(1 0 0 1 0 0) " stroke-linecap="round"/>
      	<path d="M 33.458 26.392 l -2.001 -0.731 c -0.879 -0.258 -1.567 -0.896 -1.886 -1.748 c -0.271 -0.721 -0.244 -1.504 0.075 -2.205 c 0.318 -0.701 0.891 -1.236 1.612 -1.506 c 1.489 -0.558 3.153 0.199 3.71 1.687 c 0.194 0.517 0.771 0.779 1.288 0.585 s 0.779 -0.771 0.585 -1.288 c -0.624 -1.662 -2.066 -2.768 -3.696 -3.069 v -1.264 c 0 -0.552 -0.448 -1 -1 -1 s -1 0.448 -1 1 v 1.32 c -0.197 0.047 -0.395 0.083 -0.59 0.156 c -2.521 0.945 -3.803 3.765 -2.857 6.286 c 0.543 1.447 1.708 2.527 3.134 2.944 l 2.001 0.731 c 0.879 0.258 1.567 0.895 1.887 1.748 c 0.271 0.721 0.244 1.503 -0.075 2.205 c -0.319 0.701 -0.891 1.236 -1.612 1.506 s -1.503 0.245 -2.205 -0.075 c -0.701 -0.318 -1.235 -0.891 -1.505 -1.612 c -0.193 -0.517 -0.771 -0.776 -1.288 -0.585 c -0.517 0.194 -0.779 0.771 -0.585 1.288 c 0.458 1.221 1.364 2.191 2.551 2.73 c 0.37 0.168 0.755 0.274 1.145 0.346 v 1.257 c 0 0.552 0.448 1 1 1 c 0.552 0 1 -0.448 1 -1 v -1.313 c 0.198 -0.047 0.397 -0.091 0.59 -0.163 c 1.221 -0.458 2.19 -1.364 2.73 -2.551 c 0.54 -1.188 0.584 -2.514 0.127 -3.734 C 36.05 27.889 34.885 26.808 33.458 26.392 z" style="stroke: none; stroke-width: 1; stroke-dasharray: none; stroke-linecap: butt; stroke-linejoin: miter; stroke-miterlimit: 10; fill: rgb(0,0,0); fill-rule: nonzero; opacity: 1;" transform=" matrix(1 0 0 1 0 0) " stroke-linecap="round"/>
      	<path d="M 14.076 50.726 h -2.803 c -0.552 0 -1 -0.447 -1 -1 s 0.448 -1 1 -1 h 2.803 c 0.552 0 1 0.447 1 1 S 14.628 50.726 14.076 50.726 z" style="stroke: none; stroke-width: 1; stroke-dasharray: none; stroke-linecap: butt; stroke-linejoin: miter; stroke-miterlimit: 10; fill: rgb(0,0,0); fill-rule: nonzero; opacity: 1;" transform=" matrix(1 0 0 1 0 0) " stroke-linecap="round"/>
      	<path d="M 14.076 59.596 h -2.803 c -0.552 0 -1 -0.447 -1 -1 s 0.448 -1 1 -1 h 2.803 c 0.552 0 1 0.447 1 1 S 14.628 59.596 14.076 59.596 z" style="stroke: none; stroke-width: 1; stroke-dasharray: none; stroke-linecap: butt; stroke-linejoin: miter; stroke-miterlimit: 10; fill: rgb(0,0,0); fill-rule: nonzero; opacity: 1;" transform=" matrix(1 0 0 1 0 0) " stroke-linecap="round"/>
      	<path d="M 32.962 50.726 H 22.676 c -0.552 0 -1 -0.447 -1 -1 s 0.448 -1 1 -1 h 10.286 c 0.552 0 1 0.447 1 1 S 33.515 50.726 32.962 50.726 z" style="stroke: none; stroke-width: 1; stroke-dasharray: none; stroke-linecap: butt; stroke-linejoin: miter; stroke-miterlimit: 10; fill: rgb(0,0,0); fill-rule: nonzero; opacity: 1;" transform=" matrix(1 0 0 1 0 0) " stroke-linecap="round"/>
      	<path d="M 30.358 59.596 h -7.682 c -0.552 0 -1 -0.447 -1 -1 s 0.448 -1 1 -1 h 7.682 c 0.552 0 1 0.447 1 1 S 30.91 59.596 30.358 59.596 z" style="stroke: none; stroke-width: 1; stroke-dasharray: none; stroke-linecap: butt; stroke-linejoin: miter; stroke-miterlimit: 10; fill: rgb(0,0,0); fill-rule: nonzero; opacity: 1;" transform=" matrix(1 0 0 1 0 0) " stroke-linecap="round"/>
      	<path d="M 41.781 53.775 c -0.08 0 -0.162 -0.01 -0.243 -0.029 c -0.536 -0.134 -0.862 -0.677 -0.729 -1.212 c 1.006 -4.042 3.275 -6.606 6.374 -9.213 c 1.778 -1.344 3.942 -1.994 6.11 -1.854 c 0.552 0.035 0.97 0.51 0.936 1.061 c -0.035 0.551 -0.517 0.967 -1.061 0.935 c -1.721 -0.108 -3.385 0.398 -4.739 1.421 c -2.838 2.39 -4.8 4.602 -5.679 8.132 C 42.637 53.472 42.229 53.775 41.781 53.775 z" style="stroke: none; stroke-width: 1; stroke-dasharray: none; stroke-linecap: butt; stroke-linejoin: miter; stroke-miterlimit: 10; fill: rgb(0,0,0); fill-rule: nonzero; opacity: 1;" transform=" matrix(1 0 0 1 0 0) " stroke-linecap="round"/>
      	<path d="M 89.972 61.876 c -0.063 -0.258 -0.225 -0.479 -0.451 -0.618 l -8.022 -4.886 c -0.475 -0.287 -1.088 -0.136 -1.375 0.334 l -0.781 1.283 c -2.596 -1.968 -6.981 -5.488 -8.916 -7.216 c -0.411 -0.366 -1.042 -0.333 -1.412 0.08 c -0.367 0.412 -0.332 1.044 0.08 1.412 c 2.045 1.827 6.568 5.455 9.202 7.442 L 69.53 74.098 c -2.439 -2.299 -4.119 -5.16 -4.764 -8.17 c -0.079 -0.373 -0.364 -0.668 -0.734 -0.761 l -11.261 -2.823 c -0.052 -0.013 -0.104 -0.021 -0.156 -0.026 c -0.956 -0.084 -1.815 -0.54 -2.42 -1.284 c -0.604 -0.745 -0.874 -1.681 -0.759 -2.634 c 0.221 -1.826 1.817 -3.188 3.644 -3.085 l 10.366 2.258 c 0.546 0.118 1.072 -0.226 1.19 -0.765 c 0.117 -0.54 -0.226 -1.072 -0.765 -1.19 l -10.443 -2.274 c -0.049 -0.01 -0.098 -0.017 -0.147 -0.021 c -2.905 -0.179 -5.479 1.934 -5.831 4.837 c -0.181 1.496 0.243 2.964 1.192 4.134 c 0.932 1.148 2.249 1.859 3.716 2.009 l 10.597 2.657 c 0.847 3.305 2.786 6.405 5.517 8.876 l -0.933 1.532 c -0.138 0.227 -0.18 0.499 -0.117 0.757 s 0.225 0.479 0.451 0.618 l 8.022 4.886 c 0.163 0.099 0.343 0.146 0.52 0.146 c 0.338 0 0.667 -0.171 0.855 -0.479 l 12.584 -20.662 C 89.992 62.406 90.034 62.134 89.972 61.876 z M 76.082 81.4 l -6.314 -3.846 L 81.312 58.6 l 6.314 3.846 L 76.082 81.4 z" style="stroke: none; stroke-width: 1; stroke-dasharray: none; stroke-linecap: butt; stroke-linejoin: miter; stroke-miterlimit: 10; fill: rgb(0,0,0); fill-rule: nonzero; opacity: 1;" transform=" matrix(1 0 0 1 0 0) " stroke-linecap="round"/>
      	<path d="M 35.403 71.019 c -0.276 0 -0.545 -0.114 -0.738 -0.325 c -0.257 -0.28 -0.332 -0.683 -0.194 -1.037 l 3.661 -9.417 c 0.056 -0.144 0.144 -0.271 0.257 -0.375 L 66.45 34.172 c 0.197 -0.179 0.462 -0.271 0.72 -0.262 c 0.265 0.012 0.515 0.128 0.693 0.324 l 6.041 6.598 c 0.373 0.407 0.346 1.04 -0.062 1.413 L 62.908 52.256 c -0.408 0.373 -1.039 0.345 -1.413 -0.062 c -0.373 -0.408 -0.346 -1.04 0.062 -1.413 l 10.196 -9.336 l -4.69 -5.123 l -27.151 24.86 l -2.843 7.312 l 7.533 -2.188 l 1.696 -1.553 c 0.408 -0.372 1.04 -0.345 1.413 0.062 c 0.373 0.407 0.346 1.04 -0.062 1.413 l -1.869 1.711 c -0.113 0.104 -0.249 0.18 -0.396 0.223 l -9.703 2.818 C 35.59 71.006 35.496 71.019 35.403 71.019 z" style="stroke: none; stroke-width: 1; stroke-dasharray: none; stroke-linecap: butt; stroke-linejoin: miter; stroke-miterlimit: 10; fill: rgb(0,0,0); fill-rule: nonzero; opacity: 1;" transform=" matrix(1 0 0 1 0 0) " stroke-linecap="round"/>
      	<path d="M 29.43 72.329 H 11.272 c -0.552 0 -1 -0.447 -1 -1 s 0.448 -1 1 -1 H 29.43 c 0.552 0 1 0.447 1 1 S 29.982 72.329 29.43 72.329 z" style="stroke: none; stroke-width: 1; stroke-dasharray: none; stroke-linecap: butt; stroke-linejoin: miter; stroke-miterlimit: 10; fill: rgb(0,0,0); fill-rule: nonzero; opacity: 1;" transform=" matrix(1 0 0 1 0 0) " stroke-linecap="round"/>
      </g>
    </symbol>

    <!-- hobby icon -->
    <symbol id="hobby" viewBox="0 0 256 256">
      <g style="stroke: none; stroke-width: 0; stroke-dasharray: none; stroke-linecap: butt; stroke-linejoin: miter; stroke-miterlimit: 10; fill: none; fill-rule: nonzero; opacity: 1;" transform="translate(1.4065934065934016 1.4065934065934016) scale(2.81 2.81)">
      	<path d="M 36.123 47.688 c -0.256 0 -0.512 -0.098 -0.707 -0.293 c -0.391 -0.391 -0.391 -1.023 0 -1.414 l 6.451 -6.451 c 0.391 -0.391 1.023 -0.391 1.414 0 s 0.391 1.023 0 1.414 l -6.451 6.451 C 36.635 47.591 36.379 47.688 36.123 47.688 z" style="stroke: none; stroke-width: 1; stroke-dasharray: none; stroke-linecap: butt; stroke-linejoin: miter; stroke-miterlimit: 10; fill: rgb(0,0,0); fill-rule: nonzero; opacity: 1;" transform=" matrix(1 0 0 1 0 0) " stroke-linecap="round"/>
      	<path d="M 46.572 44.463 c -0.256 0 -0.512 -0.098 -0.707 -0.293 c -0.391 -0.391 -0.391 -1.023 0 -1.414 l 3.037 -3.037 c 0.391 -0.391 1.023 -0.391 1.414 0 s 0.391 1.023 0 1.414 l -3.037 3.037 C 47.084 44.365 46.828 44.463 46.572 44.463 z" style="stroke: none; stroke-width: 1; stroke-dasharray: none; stroke-linecap: butt; stroke-linejoin: miter; stroke-miterlimit: 10; fill: rgb(0,0,0); fill-rule: nonzero; opacity: 1;" transform=" matrix(1 0 0 1 0 0) " stroke-linecap="round"/>
      	<path d="M 36.312 54.724 c -0.256 0 -0.512 -0.098 -0.707 -0.293 c -0.391 -0.391 -0.391 -1.023 0 -1.414 l 7.437 -7.438 c 0.391 -0.391 1.023 -0.391 1.414 0 s 0.391 1.023 0 1.414 l -7.437 7.438 C 36.823 54.626 36.567 54.724 36.312 54.724 z" style="stroke: none; stroke-width: 1; stroke-dasharray: none; stroke-linecap: butt; stroke-linejoin: miter; stroke-miterlimit: 10; fill: rgb(0,0,0); fill-rule: nonzero; opacity: 1;" transform=" matrix(1 0 0 1 0 0) " stroke-linecap="round"/>
      	<path d="M 45 72.044 c -12.428 0 -22.54 -10.111 -22.54 -22.539 c 0 -12.429 10.111 -22.54 22.54 -22.54 c 12.428 0 22.539 10.111 22.539 22.54 C 67.539 61.933 57.428 72.044 45 72.044 z M 45 28.965 c -11.326 0 -20.54 9.214 -20.54 20.54 c 0 11.325 9.214 20.539 20.54 20.539 c 11.325 0 20.539 -9.214 20.539 -20.539 C 65.539 38.179 56.325 28.965 45 28.965 z" style="stroke: none; stroke-width: 1; stroke-dasharray: none; stroke-linecap: butt; stroke-linejoin: miter; stroke-miterlimit: 10; fill: rgb(0,0,0); fill-rule: nonzero; opacity: 1;" transform=" matrix(1 0 0 1 0 0) " stroke-linecap="round"/>
      	<path d="M 86.018 18.81 H 64.651 v -4.878 c 0 -2.278 -1.854 -4.131 -4.131 -4.131 H 29.479 c -2.278 0 -4.131 1.853 -4.131 4.131 v 4.878 H 3.982 C 1.786 18.81 0 20.596 0 22.792 v 53.425 c 0 2.196 1.786 3.982 3.982 3.982 h 82.036 c 2.196 0 3.982 -1.786 3.982 -3.982 V 22.792 C 90 20.596 88.214 18.81 86.018 18.81 z M 27.348 13.932 c 0 -1.175 0.956 -2.131 2.131 -2.131 h 31.041 c 1.175 0 2.131 0.956 2.131 2.131 v 4.878 H 27.348 V 13.932 z M 88 76.217 c 0 1.093 -0.89 1.982 -1.982 1.982 H 3.982 C 2.889 78.199 2 77.31 2 76.217 V 22.792 c 0 -1.093 0.889 -1.982 1.982 -1.982 h 82.036 c 1.093 0 1.982 0.889 1.982 1.982 V 76.217 z" style="stroke: none; stroke-width: 1; stroke-dasharray: none; stroke-linecap: butt; stroke-linejoin: miter; stroke-miterlimit: 10; fill: rgb(0,0,0); fill-rule: nonzero; opacity: 1;" transform=" matrix(1 0 0 1 0 0) " stroke-linecap="round"/>
      	<path d="M 78.023 35.504 c -2.598 0 -4.711 -2.113 -4.711 -4.711 s 2.113 -4.711 4.711 -4.711 s 4.711 2.113 4.711 4.711 S 80.621 35.504 78.023 35.504 z M 78.023 28.083 c -1.495 0 -2.711 1.216 -2.711 2.711 s 1.216 2.711 2.711 2.711 s 2.711 -1.216 2.711 -2.711 S 79.519 28.083 78.023 28.083 z" style="stroke: none; stroke-width: 1; stroke-dasharray: none; stroke-linecap: butt; stroke-linejoin: miter; stroke-miterlimit: 10; fill: rgb(0,0,0); fill-rule: nonzero; opacity: 1;" transform=" matrix(1 0 0 1 0 0) " stroke-linecap="round"/>
      	<path d="M 45 65.505 c -8.822 0 -16 -7.178 -16 -16 c 0 -8.823 7.178 -16 16 -16 s 16 7.178 16 16 C 61 58.327 53.822 65.505 45 65.505 z M 45 35.504 c -7.72 0 -14 6.281 -14 14 s 6.28 14 14 14 s 14 -6.28 14 -14 S 52.72 35.504 45 35.504 z" style="stroke: none; stroke-width: 1; stroke-dasharray: none; stroke-linecap: butt; stroke-linejoin: miter; stroke-miterlimit: 10; fill: rgb(0,0,0); fill-rule: nonzero; opacity: 1;" transform=" matrix(1 0 0 1 0 0) " stroke-linecap="round"/>
      	<path d="M 14.366 35.504 h -3.915 c -2.598 0 -4.711 -2.113 -4.711 -4.711 s 2.113 -4.711 4.711 -4.711 h 3.915 c 2.598 0 4.711 2.113 4.711 4.711 S 16.963 35.504 14.366 35.504 z M 10.451 28.083 c -1.495 0 -2.711 1.216 -2.711 2.711 s 1.216 2.711 2.711 2.711 h 3.915 c 1.495 0 2.711 -1.216 2.711 -2.711 s -1.216 -2.711 -2.711 -2.711 H 10.451 z" style="stroke: none; stroke-width: 1; stroke-dasharray: none; stroke-linecap: butt; stroke-linejoin: miter; stroke-miterlimit: 10; fill: rgb(0,0,0); fill-rule: nonzero; opacity: 1;" transform=" matrix(1 0 0 1 0 0) " stroke-linecap="round"/>
      </g>
    </symbol>

    <!-- mobile icon -->
    <symbol id="mobile" viewBox="0 0 256 256">
      <g style="stroke: none; stroke-width: 0; stroke-dasharray: none; stroke-linecap: butt; stroke-linejoin: miter; stroke-miterlimit: 10; fill: none; fill-rule: nonzero; opacity: 1;" transform="translate(1.4065934065934016 1.4065934065934016) scale(2.81 2.81)">
      	<path d="M 64.967 0 H 25.033 c -3.363 0 -6.099 2.736 -6.099 6.098 v 77.803 c 0 3.362 2.736 6.099 6.099 6.099 h 39.934 c 3.363 0 6.099 -2.736 6.099 -6.099 V 6.098 C 71.065 2.736 68.33 0 64.967 0 z M 20.935 12.417 h 48.131 v 63.67 H 20.935 V 12.417 z M 25.033 2 h 39.934 c 2.26 0 4.099 1.838 4.099 4.098 v 4.319 H 20.935 V 6.098 C 20.935 3.838 22.773 2 25.033 2 z M 64.967 88 H 25.033 c -2.26 0 -4.099 -1.839 -4.099 -4.099 v -5.814 h 48.131 v 5.814 C 69.065 86.161 67.227 88 64.967 88 z" style="stroke: none; stroke-width: 1; stroke-dasharray: none; stroke-linecap: butt; stroke-linejoin: miter; stroke-miterlimit: 10; fill: rgb(0,0,0); fill-rule: nonzero; opacity: 1;" transform=" matrix(1 0 0 1 0 0) " stroke-linecap="round"/>
      	<circle cx="45" cy="83.04" r="2" style="stroke: none; stroke-width: 1; stroke-dasharray: none; stroke-linecap: butt; stroke-linejoin: miter; stroke-miterlimit: 10; fill: rgb(0,0,0); fill-rule: nonzero; opacity: 1;" transform="  matrix(1 0 0 1 0 0) "/>
      	<path d="M 47.169 7.254 H 36.114 c -0.552 0 -1 -0.448 -1 -1 s 0.448 -1 1 -1 h 11.055 c 0.553 0 1 0.448 1 1 S 47.722 7.254 47.169 7.254 z" style="stroke: none; stroke-width: 1; stroke-dasharray: none; stroke-linecap: butt; stroke-linejoin: miter; stroke-miterlimit: 10; fill: rgb(0,0,0); fill-rule: nonzero; opacity: 1;" transform=" matrix(1 0 0 1 0 0) " stroke-linecap="round"/>
      	<circle cx="51.89" cy="6.25" r="1.5" style="stroke: none; stroke-width: 1; stroke-dasharray: none; stroke-linecap: butt; stroke-linejoin: miter; stroke-miterlimit: 10; fill: rgb(0,0,0); fill-rule: nonzero; opacity: 1;" transform="  matrix(1 0 0 1 0 0) "/>
      </g>
    </symbol>

    <!-- other_payment icon -->
    <symbol id="other_payment" viewBox="0 0 256 256">
      <g style="stroke: none; stroke-width: 0; stroke-dasharray: none; stroke-linecap: butt; stroke-linejoin: miter; stroke-miterlimit: 10; fill: none; fill-rule: nonzero; opacity: 1;" transform="translate(1.4065934065934016 1.4065934065934016) scale(2.81 2.81)">
      	<path d="M 45 55.183 c -5.615 0 -10.183 -4.568 -10.183 -10.183 c 0 -5.615 4.568 -10.183 10.183 -10.183 c 5.614 0 10.183 4.568 10.183 10.183 C 55.183 50.614 50.614 55.183 45 55.183 z M 45 36.817 c -4.512 0 -8.183 3.671 -8.183 8.183 s 3.671 8.183 8.183 8.183 s 8.183 -3.671 8.183 -8.183 S 49.512 36.817 45 36.817 z" style="stroke: none; stroke-width: 1; stroke-dasharray: none; stroke-linecap: butt; stroke-linejoin: miter; stroke-miterlimit: 10; fill: rgb(0,0,0); fill-rule: nonzero; opacity: 1;" transform=" matrix(1 0 0 1 0 0) " stroke-linecap="round"/>
      	<path d="M 10.25 55.249 C 4.598 55.249 0 50.651 0 45 s 4.598 -10.25 10.25 -10.25 S 20.499 39.349 20.499 45 S 15.901 55.249 10.25 55.249 z M 10.25 36.75 C 5.701 36.75 2 40.451 2 45 s 3.701 8.249 8.25 8.249 c 4.548 0 8.249 -3.7 8.249 -8.249 S 14.798 36.75 10.25 36.75 z" style="stroke: none; stroke-width: 1; stroke-dasharray: none; stroke-linecap: butt; stroke-linejoin: miter; stroke-miterlimit: 10; fill: rgb(0,0,0); fill-rule: nonzero; opacity: 1;" transform=" matrix(1 0 0 1 0 0) " stroke-linecap="round"/>
      	<path d="M 79.751 55.249 c -5.652 0 -10.25 -4.598 -10.25 -10.249 s 4.598 -10.25 10.25 -10.25 C 85.402 34.75 90 39.349 90 45 S 85.402 55.249 79.751 55.249 z M 79.751 36.75 c -4.549 0 -8.25 3.701 -8.25 8.25 s 3.701 8.249 8.25 8.249 S 88 49.549 88 45 S 84.3 36.75 79.751 36.75 z" style="stroke: none; stroke-width: 1; stroke-dasharray: none; stroke-linecap: butt; stroke-linejoin: miter; stroke-miterlimit: 10; fill: rgb(0,0,0); fill-rule: nonzero; opacity: 1;" transform=" matrix(1 0 0 1 0 0) " stroke-linecap="round"/>
      </g>
    </symbol>

    <!-- restaurant icon -->
    <symbol id="restaurant" viewBox="0 0 256 256">
      <g style="stroke: none; stroke-width: 0; stroke-dasharray: none; stroke-linecap: butt; stroke-linejoin: miter; stroke-miterlimit: 10; fill: none; fill-rule: nonzero; opacity: 1;" transform="translate(1.4065934065934016 1.4065934065934016) scale(2.81 2.81)">
      	<path d="M 8.511 71.628 c -1.403 0 -2.71 -0.559 -3.68 -1.572 c -0.97 -1.015 -1.469 -2.345 -1.407 -3.747 L 4.612 39.75 l -2.474 -2.588 c -1.452 -1.518 -2.228 -3.593 -2.13 -5.691 l 0.565 -12.145 c 0.026 -0.552 0.524 -0.96 1.045 -0.953 c 0.552 0.026 0.978 0.494 0.953 1.045 L 2.006 31.563 c -0.072 1.555 0.502 3.092 1.578 4.217 l 2.769 2.897 c 0.189 0.197 0.289 0.463 0.276 0.735 L 5.423 66.399 c -0.038 0.851 0.266 1.659 0.855 2.274 c 1.178 1.233 3.291 1.232 4.469 0 c 0.588 -0.616 0.892 -1.424 0.854 -2.274 l -1.206 -26.986 c -0.012 -0.272 0.087 -0.538 0.276 -0.735 l 2.769 -2.897 c 1.075 -1.125 1.65 -2.662 1.578 -4.217 l -0.565 -12.145 c -0.025 -0.552 0.401 -1.02 0.953 -1.045 c 0.537 -0.024 1.02 0.4 1.045 0.953 l 0.565 12.145 c 0.097 2.099 -0.68 4.173 -2.131 5.691 l -2.474 2.588 l 1.187 26.559 c 0.063 1.401 -0.437 2.732 -1.406 3.746 C 11.222 71.07 9.914 71.628 8.511 71.628 z" style="stroke: none; stroke-width: 1; stroke-dasharray: none; stroke-linecap: butt; stroke-linejoin: miter; stroke-miterlimit: 10; fill: rgb(0,0,0); fill-rule: nonzero; opacity: 1;" transform=" matrix(1 0 0 1 0 0) " stroke-linecap="round"/>
      	<path d="M 6.066 33.907 c -0.552 0 -1 -0.448 -1 -1 V 19.372 c 0 -0.552 0.448 -1 1 -1 s 1 0.448 1 1 v 13.534 C 7.066 33.459 6.618 33.907 6.066 33.907 z" style="stroke: none; stroke-width: 1; stroke-dasharray: none; stroke-linecap: butt; stroke-linejoin: miter; stroke-miterlimit: 10; fill: rgb(0,0,0); fill-rule: nonzero; opacity: 1;" transform=" matrix(1 0 0 1 0 0) " stroke-linecap="round"/>
      	<path d="M 10.956 33.907 c -0.552 0 -1 -0.448 -1 -1 V 19.372 c 0 -0.552 0.448 -1 1 -1 c 0.552 0 1 0.448 1 1 v 13.534 C 11.956 33.459 11.509 33.907 10.956 33.907 z" style="stroke: none; stroke-width: 1; stroke-dasharray: none; stroke-linecap: butt; stroke-linejoin: miter; stroke-miterlimit: 10; fill: rgb(0,0,0); fill-rule: nonzero; opacity: 1;" transform=" matrix(1 0 0 1 0 0) " stroke-linecap="round"/>
      	<path d="M 81.658 71.628 c -1.402 0 -2.709 -0.559 -3.68 -1.572 c -0.97 -1.014 -1.47 -2.345 -1.407 -3.746 l 1.085 -24.271 l -1.216 -1.22 c -2.72 -2.729 -3.767 -6.73 -2.731 -10.442 l 2.114 -7.576 c 0.728 -2.607 3.127 -4.428 5.834 -4.428 s 5.107 1.821 5.834 4.428 l 2.114 7.575 c 1.036 3.712 -0.011 7.714 -2.731 10.443 l -1.216 1.22 l 1.085 24.27 c 0.063 1.402 -0.438 2.733 -1.407 3.747 C 84.367 71.07 83.06 71.628 81.658 71.628 z M 81.658 20.372 c -1.814 0 -3.42 1.22 -3.908 2.966 l -2.114 7.575 c -0.842 3.019 0.009 6.273 2.221 8.492 l 1.526 1.532 c 0.198 0.199 0.304 0.471 0.291 0.75 l -1.105 24.71 c -0.038 0.851 0.266 1.659 0.855 2.274 c 1.178 1.232 3.291 1.232 4.469 0 c 0.589 -0.615 0.893 -1.424 0.855 -2.275 l -1.105 -24.709 c -0.013 -0.28 0.093 -0.552 0.291 -0.75 l 1.526 -1.532 l 0 0 c 2.212 -2.219 3.063 -5.473 2.221 -8.493 l -2.114 -7.575 C 85.078 21.592 83.471 20.372 81.658 20.372 z" style="stroke: none; stroke-width: 1; stroke-dasharray: none; stroke-linecap: butt; stroke-linejoin: miter; stroke-miterlimit: 10; fill: rgb(0,0,0); fill-rule: nonzero; opacity: 1;" transform=" matrix(1 0 0 1 0 0) " stroke-linecap="round"/>
      	<path d="M 45 71.628 c -14.683 0 -26.628 -11.946 -26.628 -26.628 S 30.317 18.372 45 18.372 S 71.628 30.317 71.628 45 S 59.683 71.628 45 71.628 z M 45 20.372 C 31.42 20.372 20.372 31.42 20.372 45 c 0 13.58 11.048 24.628 24.628 24.628 c 13.58 0 24.628 -11.048 24.628 -24.628 C 69.628 31.42 58.58 20.372 45 20.372 z" style="stroke: none; stroke-width: 1; stroke-dasharray: none; stroke-linecap: butt; stroke-linejoin: miter; stroke-miterlimit: 10; fill: rgb(0,0,0); fill-rule: nonzero; opacity: 1;" transform=" matrix(1 0 0 1 0 0) " stroke-linecap="round"/>
      	<path d="M 45 63.5 c -10.201 0 -18.5 -8.299 -18.5 -18.5 S 34.799 26.5 45 26.5 S 63.5 34.799 63.5 45 S 55.201 63.5 45 63.5 z M 45 28.5 c -9.098 0 -16.5 7.402 -16.5 16.5 c 0 9.098 7.402 16.5 16.5 16.5 c 9.098 0 16.5 -7.402 16.5 -16.5 C 61.5 35.902 54.098 28.5 45 28.5 z" style="stroke: none; stroke-width: 1; stroke-dasharray: none; stroke-linecap: butt; stroke-linejoin: miter; stroke-miterlimit: 10; fill: rgb(0,0,0); fill-rule: nonzero; opacity: 1;" transform=" matrix(1 0 0 1 0 0) " stroke-linecap="round"/>
      	<path d="M 35 46 c -0.552 0 -1 -0.448 -1 -1 c 0 -6.066 4.935 -11 11 -11 c 0.552 0 1 0.448 1 1 c 0 0.552 -0.448 1 -1 1 c -4.962 0 -9 4.038 -9 9 C 36 45.552 35.552 46 35 46 z" style="stroke: none; stroke-width: 1; stroke-dasharray: none; stroke-linecap: butt; stroke-linejoin: miter; stroke-miterlimit: 10; fill: rgb(0,0,0); fill-rule: nonzero; opacity: 1;" transform=" matrix(1 0 0 1 0 0) " stroke-linecap="round"/>
      </g>
    </symbol>

    <!-- shopping icon -->
    <symbol id="shopping" viewBox="0 0 256 256">
      <g style="stroke: none; stroke-width: 0; stroke-dasharray: none; stroke-linecap: butt; stroke-linejoin: miter; stroke-miterlimit: 10; fill: none; fill-rule: nonzero; opacity: 1;" transform="translate(1.4065934065934016 1.4065934065934016) scale(2.81 2.81)">
      	<path d="M 89.138 21.425 c -0.824 -1.103 -2.087 -1.736 -3.464 -1.736 H 17.129 l -0.886 -3.413 c -0.704 -2.713 -3.153 -4.607 -5.956 -4.607 H 1 c -0.552 0 -1 0.448 -1 1 c 0 0.552 0.448 1 1 1 h 9.287 c 1.892 0 3.545 1.279 4.021 3.11 l 11.165 42.995 c 0.114 0.441 0.512 0.749 0.968 0.749 h 52.201 c 0.553 0 1 -0.447 1 -1 s -0.447 -1 -1 -1 H 27.214 l -2.398 -9.232 h 53.3 c 2.704 0 5.128 -1.812 5.894 -4.404 l 5.809 -19.649 C 90.21 23.918 89.961 22.528 89.138 21.425 z M 87.901 24.671 l -5.809 19.649 c -0.518 1.75 -2.152 2.972 -3.977 2.972 H 24.297 l -6.649 -25.602 h 68.025 c 0.74 0 1.418 0.34 1.861 0.933 C 87.977 23.215 88.111 23.961 87.901 24.671 z" style="stroke: none; stroke-width: 1; stroke-dasharray: none; stroke-linecap: butt; stroke-linejoin: miter; stroke-miterlimit: 10; fill: rgb(0,0,0); fill-rule: nonzero; opacity: 1;" transform=" matrix(1 0 0 1 0 0) " stroke-linecap="round"/>
      	<path d="M 35.47 78.331 c -3.762 0 -6.822 -3.061 -6.822 -6.822 s 3.061 -6.822 6.822 -6.822 c 3.762 0 6.823 3.061 6.823 6.822 S 39.232 78.331 35.47 78.331 z M 35.47 66.686 c -2.659 0 -4.822 2.163 -4.822 4.822 c 0 2.659 2.163 4.822 4.822 4.822 s 4.823 -2.163 4.823 -4.822 C 40.293 68.849 38.129 66.686 35.47 66.686 z" style="stroke: none; stroke-width: 1; stroke-dasharray: none; stroke-linecap: butt; stroke-linejoin: miter; stroke-miterlimit: 10; fill: rgb(0,0,0); fill-rule: nonzero; opacity: 1;" transform=" matrix(1 0 0 1 0 0) " stroke-linecap="round"/>
      	<path d="M 68.27 78.331 c -3.762 0 -6.822 -3.061 -6.822 -6.822 s 3.061 -6.822 6.822 -6.822 c 3.763 0 6.823 3.061 6.823 6.822 S 72.032 78.331 68.27 78.331 z M 68.27 66.686 c -2.659 0 -4.822 2.163 -4.822 4.822 c 0 2.659 2.163 4.822 4.822 4.822 c 2.659 0 4.823 -2.163 4.823 -4.822 C 73.093 68.849 70.929 66.686 68.27 66.686 z" style="stroke: none; stroke-width: 1; stroke-dasharray: none; stroke-linecap: butt; stroke-linejoin: miter; stroke-miterlimit: 10; fill: rgb(0,0,0); fill-rule: nonzero; opacity: 1;" transform=" matrix(1 0 0 1 0 0) " stroke-linecap="round"/>
      </g>
    </symbol>

    <!-- subscription icon -->
    <symbol id="subscription" viewBox="0 0 256 256">
      <g style="stroke: none; stroke-width: 0; stroke-dasharray: none; stroke-linecap: butt; stroke-linejoin: miter; stroke-miterlimit: 10; fill: none; fill-rule: nonzero; opacity: 1;" transform="translate(1.4065934065934016 1.4065934065934016) scale(2.81 2.81)">
      	<path d="M 75.458 78.114 H 14.542 c -2.253 0 -4.087 -1.833 -4.087 -4.087 c 0 -3.136 1.367 -6.102 3.751 -8.138 c 1.938 -1.655 3.05 -4.067 3.05 -6.616 v -22.41 C 17.257 21.566 29.703 9.121 45 9.121 c 15.298 0 27.743 12.445 27.743 27.743 v 22.41 c 0 2.549 1.111 4.961 3.05 6.616 c 2.385 2.036 3.752 5.002 3.752 8.138 C 79.545 76.281 77.712 78.114 75.458 78.114 z M 45 11.121 c -14.194 0 -25.743 11.548 -25.743 25.743 v 22.41 c 0 3.135 -1.367 6.101 -3.751 8.138 c -1.938 1.655 -3.05 4.066 -3.05 6.616 c 0 1.15 0.936 2.087 2.087 2.087 h 60.916 c 1.15 0 2.087 -0.937 2.087 -2.087 c 0 -2.55 -1.112 -4.961 -3.051 -6.616 c -2.384 -2.037 -3.751 -5.003 -3.751 -8.138 v -22.41 C 70.743 22.669 59.195 11.121 45 11.121 z" style="stroke: none; stroke-width: 1; stroke-dasharray: none; stroke-linecap: butt; stroke-linejoin: miter; stroke-miterlimit: 10; fill: rgb(0,0,0); fill-rule: nonzero; opacity: 1;" transform=" matrix(1 0 0 1 0 0) " stroke-linecap="round"/>
      	<path d="M 45 90 c -7.063 0 -12.81 -5.746 -12.81 -12.81 c 0 -0.024 0.003 -0.089 0.004 -0.113 c 0.039 -0.541 0.493 -0.987 1.044 -0.944 c 0.542 0.024 0.965 0.459 0.955 1.001 c 0 0.018 -0.003 0.07 -0.004 0.088 C 34.19 83.15 39.04 88 45 88 c 5.96 0 10.81 -4.85 10.81 -10.81 c 0 -0.553 0.445 -1.038 0.998 -1.038 s 0.998 0.409 0.998 0.962 C 57.81 84.254 52.063 90 45 90 z" style="stroke: none; stroke-width: 1; stroke-dasharray: none; stroke-linecap: butt; stroke-linejoin: miter; stroke-miterlimit: 10; fill: rgb(0,0,0); fill-rule: nonzero; opacity: 1;" transform=" matrix(1 0 0 1 0 0) " stroke-linecap="round"/>
      	<path d="M 80.543 37.863 c -0.553 0 -1 -0.448 -1 -1 c 0 -14.187 -8.898 -27.144 -22.144 -32.241 c -0.516 -0.198 -0.772 -0.777 -0.574 -1.292 c 0.199 -0.516 0.781 -0.772 1.293 -0.574 c 14.011 5.392 23.425 19.099 23.425 34.107 C 81.543 37.416 81.096 37.863 80.543 37.863 z" style="stroke: none; stroke-width: 1; stroke-dasharray: none; stroke-linecap: butt; stroke-linejoin: miter; stroke-miterlimit: 10; fill: rgb(0,0,0); fill-rule: nonzero; opacity: 1;" transform=" matrix(1 0 0 1 0 0) " stroke-linecap="round"/>
      	<path d="M 9.457 37.863 c -0.552 0 -1 -0.448 -1 -1 c 0 -15.008 9.414 -28.715 23.425 -34.107 c 0.515 -0.198 1.094 0.059 1.292 0.574 c 0.199 0.516 -0.059 1.094 -0.574 1.292 C 19.355 9.72 10.457 22.677 10.457 36.863 C 10.457 37.416 10.009 37.863 9.457 37.863 z" style="stroke: none; stroke-width: 1; stroke-dasharray: none; stroke-linecap: butt; stroke-linejoin: miter; stroke-miterlimit: 10; fill: rgb(0,0,0); fill-rule: nonzero; opacity: 1;" transform=" matrix(1 0 0 1 0 0) " stroke-linecap="round"/>
      	<path d="M 45 11.124 c -3.067 0 -5.562 -2.495 -5.562 -5.562 C 39.438 2.495 41.933 0 45 0 c 3.066 0 5.562 2.495 5.562 5.562 C 50.562 8.628 48.066 11.124 45 11.124 z M 45 2 c -1.964 0 -3.562 1.598 -3.562 3.562 S 43.036 9.124 45 9.124 s 3.562 -1.598 3.562 -3.562 S 46.964 2 45 2 z" style="stroke: none; stroke-width: 1; stroke-dasharray: none; stroke-linecap: butt; stroke-linejoin: miter; stroke-miterlimit: 10; fill: rgb(0,0,0); fill-rule: nonzero; opacity: 1;" transform=" matrix(1 0 0 1 0 0) " stroke-linecap="round"/>
      </g>
    </symbol>

    <!-- transport icon -->
    <symbol id="transport" viewBox="0 0 256 256">
      <g style="stroke: none; stroke-width: 0; stroke-dasharray: none; stroke-linecap: butt; stroke-linejoin: miter; stroke-miterlimit: 10; fill: none; fill-rule: nonzero; opacity: 1;" transform="translate(1.4065934065934016 1.4065934065934016) scale(2.81 2.81)">
      	<path d="M 74.838 67.668 V 15.203 c 0 -3.371 -2.742 -6.113 -6.113 -6.113 H 51.927 V 2.967 h 6.526 c 0.819 0 1.484 -0.664 1.484 -1.484 C 59.936 0.664 59.272 0 58.453 0 h -6.526 H 38.073 h -6.526 c -0.819 0 -1.483 0.664 -1.483 1.483 c 0 0.82 0.664 1.484 1.483 1.484 h 6.526 V 9.09 H 21.275 c -3.371 0 -6.113 2.742 -6.113 6.113 v 52.465 c 0 3.371 2.742 6.113 6.113 6.113 h 4.427 l -10.25 13.852 c -0.487 0.659 -0.348 1.588 0.31 2.076 c 0.658 0.488 1.587 0.35 2.075 -0.31 l 4.404 -5.952 h 45.516 l 4.404 5.952 c 0.292 0.393 0.74 0.601 1.194 0.601 c 0.307 0 0.616 -0.095 0.882 -0.291 c 0.659 -0.488 0.797 -1.417 0.31 -2.076 l -10.25 -13.852 h 4.428 C 72.096 73.781 74.838 71.039 74.838 67.668 z M 41.04 2.967 h 7.92 V 9.09 h -7.92 V 2.967 z M 65.563 80.479 H 24.438 l 4.956 -6.698 h 31.213 L 65.563 80.479 z M 27.898 70.814 h -6.623 c -1.735 0 -3.146 -1.411 -3.146 -3.146 V 15.203 c 0 -1.735 1.412 -3.146 3.146 -3.146 h 16.798 h 13.854 h 16.799 c 1.735 0 3.146 1.412 3.146 3.146 v 52.465 c 0 1.735 -1.411 3.146 -3.146 3.146 h -6.624 H 27.898 z" style="stroke: none; stroke-width: 1; stroke-dasharray: none; stroke-linecap: butt; stroke-linejoin: miter; stroke-miterlimit: 10; fill: rgb(0,0,0); fill-rule: nonzero; opacity: 1;" transform=" matrix(1 0 0 1 0 0) " stroke-linecap="round"/>
      	<path d="M 62.824 45.177 H 27.176 c -1.905 0 -3.455 -1.55 -3.455 -3.455 v -20.19 c 0 -1.905 1.55 -3.455 3.455 -3.455 h 35.648 c 1.905 0 3.455 1.55 3.455 3.455 v 20.19 C 66.279 43.628 64.729 45.177 62.824 45.177 z M 27.176 21.044 c -0.269 0 -0.488 0.219 -0.488 0.488 v 20.19 c 0 0.269 0.219 0.488 0.488 0.488 h 35.648 c 0.268 0 0.488 -0.219 0.488 -0.488 v -20.19 c 0 -0.269 -0.219 -0.488 -0.488 -0.488 H 27.176 z" style="stroke: none; stroke-width: 1; stroke-dasharray: none; stroke-linecap: butt; stroke-linejoin: miter; stroke-miterlimit: 10; fill: rgb(0,0,0); fill-rule: nonzero; opacity: 1;" transform=" matrix(1 0 0 1 0 0) " stroke-linecap="round"/>
      	<path d="M 30.964 65.548 c -3.755 0 -6.809 -3.055 -6.809 -6.809 c 0 -3.754 3.054 -6.809 6.809 -6.809 s 6.809 3.055 6.809 6.809 C 37.773 62.493 34.719 65.548 30.964 65.548 z M 30.964 54.897 c -2.119 0 -3.842 1.724 -3.842 3.842 c 0 2.118 1.724 3.842 3.842 3.842 s 3.842 -1.724 3.842 -3.842 C 34.806 56.621 33.083 54.897 30.964 54.897 z" style="stroke: none; stroke-width: 1; stroke-dasharray: none; stroke-linecap: butt; stroke-linejoin: miter; stroke-miterlimit: 10; fill: rgb(0,0,0); fill-rule: nonzero; opacity: 1;" transform=" matrix(1 0 0 1 0 0) " stroke-linecap="round"/>
      	<path d="M 59.036 65.548 c -3.754 0 -6.809 -3.055 -6.809 -6.809 c 0 -3.754 3.055 -6.809 6.809 -6.809 c 3.754 0 6.809 3.055 6.809 6.809 C 65.845 62.493 62.79 65.548 59.036 65.548 z M 59.036 54.897 c -2.118 0 -3.842 1.724 -3.842 3.842 c 0 2.118 1.724 3.842 3.842 3.842 c 2.118 0 3.842 -1.724 3.842 -3.842 C 62.878 56.621 61.154 54.897 59.036 54.897 z" style="stroke: none; stroke-width: 1; stroke-dasharray: none; stroke-linecap: butt; stroke-linejoin: miter; stroke-miterlimit: 10; fill: rgb(0,0,0); fill-rule: nonzero; opacity: 1;" transform=" matrix(1 0 0 1 0 0) " stroke-linecap="round"/>
      </g>
    </symbol>

    <!-- utility icon -->
    <symbol id="utility" viewBox="0 0 256 256">
      <g style="stroke: none; stroke-width: 0; stroke-dasharray: none; stroke-linecap: butt; stroke-linejoin: miter; stroke-miterlimit: 10; fill: none; fill-rule: nonzero; opacity: 1;" transform="translate(1.4065934065934016 1.4065934065934016) scale(2.81 2.81)">
      	<path d="M 88.516 47.851 c -0.38 0 -0.759 -0.145 -1.049 -0.435 L 45 4.948 L 2.532 47.416 c -0.579 0.579 -1.518 0.579 -2.098 0 c -0.579 -0.579 -0.579 -1.519 0 -2.098 L 45 0.753 l 44.565 44.565 c 0.579 0.579 0.579 1.519 0 2.098 C 89.276 47.706 88.896 47.851 88.516 47.851 z" style="stroke: none; stroke-width: 1; stroke-dasharray: none; stroke-linecap: butt; stroke-linejoin: miter; stroke-miterlimit: 10; fill: rgb(0,0,0); fill-rule: nonzero; opacity: 1;" transform=" matrix(1 0 0 1 0 0) " stroke-linecap="round"/>
      	<path d="M 77.777 34.765 c -0.819 0 -1.484 0.664 -1.484 1.484 v 48.184 c 0 0.987 -0.803 1.79 -1.79 1.79 H 57.731 V 64.526 c 0 -5.651 -4.597 -10.249 -10.248 -10.249 h -4.964 c -5.651 0 -10.249 4.598 -10.249 10.249 v 21.696 H 15.497 c -0.987 0 -1.79 -0.803 -1.79 -1.79 V 36.249 c 0 -0.82 -0.664 -1.484 -1.484 -1.484 s -1.484 0.664 -1.484 1.484 v 48.184 c 0 2.623 2.134 4.757 4.757 4.757 h 16.772 h 1.314 h 1.653 V 64.526 c 0 -4.016 3.266 -7.282 7.282 -7.282 h 4.964 c 4.015 0 7.281 3.266 7.281 7.282 v 24.663 h 1.601 h 1.366 h 16.773 c 2.623 0 4.757 -2.133 4.757 -4.757 V 36.249 C 79.26 35.429 78.596 34.765 77.777 34.765 z" style="stroke: none; stroke-width: 1; stroke-dasharray: none; stroke-linecap: butt; stroke-linejoin: miter; stroke-miterlimit: 10; fill: rgb(0,0,0); fill-rule: nonzero; opacity: 1;" transform=" matrix(1 0 0 1 0 0) " stroke-linecap="round"/>
      </g>
    </symbol>

  </defs>
</svg>
